<?xml version="1.0" encoding="UTF-8"?>
<!-- Generator: visioncortex VTracer 0.6.4 -->
<svg version="1.1" xmlns="http://www.w3.org/2000/svg" width="300" height="132">
<path d="M0 0 C99 0 198 0 300 0 C300 43.56 300 87.12 300 132 C201 132 102 132 0 132 C0 88.44 0 44.88 0 0 Z " fill="#000000" transform="translate(0,0)"/>
<path d="M0 0 C2.583595 2.255293 5.023269 4.567017 7.265625 7.164062 C9.924744 9.425996 12.492094 9.115675 15.863281 9.046875 C19.518771 8.339048 22.098555 6.850982 25.308594 4.976562 C30.932294 1.717598 35.335538 -0.162335 41.808594 1.476562 C46.841151 4.476741 49.391019 8.533155 52.414062 13.488281 C53.816873 15.74402 53.816873 15.74402 56.808594 17.476562 C64.133748 18.618317 69.594586 16.682776 76.058594 13.476562 C84.775123 9.495108 92.40806 7.289738 101.976562 10.117188 C106.853312 12.485587 110.664015 17.150546 113.808594 21.476562 C115.625692 26.927858 115.627506 32.352017 113.308594 37.664062 C108.9845 45.246241 101.128027 48.492946 93.445312 51.886719 C89.368219 54.345055 88.206736 57.471728 86.496094 61.789062 C84.269796 67.115859 80.869242 71.592542 76.621094 75.476562 C68.873662 78.231205 61.735802 76.54167 54.414062 73.351562 C51.274444 72.297178 49.103964 72.07635 45.808594 72.476562 C42.915831 74.115113 42.915831 74.115113 40.246094 76.351562 C33.501325 81.689975 28.631262 83.081007 20.039062 82.90625 C14.974169 82.232564 12.069053 80.355119 8.808594 76.476562 C5.026246 70.832135 3.209098 65.083793 2.167969 58.410156 C1.997303 56.476607 1.997303 56.476607 0.808594 55.476562 C0.024844 56.280937 -0.758906 57.085313 -1.566406 57.914062 C-5.724769 61.973416 -8.586704 61.810119 -14.222656 61.765625 C-18.651857 61.334361 -22.471649 59.920975 -26.191406 57.476562 C-28.191406 54.476562 -28.191406 54.476562 -27.878906 51.914062 C-27.191406 49.476562 -27.191406 49.476562 -26.191406 47.476562 C-26.253281 45.991563 -26.253281 45.991563 -26.316406 44.476562 C-26.275156 43.486562 -26.233906 42.496563 -26.191406 41.476562 C-25.201406 40.816563 -24.211406 40.156563 -23.191406 39.476562 C-23.521406 38.816563 -23.851406 38.156563 -24.191406 37.476562 C-24.598364 33.73255 -24.690454 32.108689 -22.316406 29.101562 C-20.191406 27.476562 -20.191406 27.476562 -18.191406 27.476562 C-18.504648 26.783047 -18.817891 26.089531 -19.140625 25.375 C-21.323329 19.354308 -22.433725 11.501815 -20.003906 5.414062 C-17.910646 2.021537 -16.121901 -0.627136 -12.441406 -2.335938 C-7.656228 -2.734702 -3.988722 -2.772908 0 0 Z " fill="#DD4E3A" transform="translate(142.19140625,28.5234375)"/>
<path d="M0 0 C5.040468 4.114668 10.484521 8.696142 11.300781 15.480469 C11.497818 21.339715 10.629791 25.753604 7.0625 30.5 C2.591359 34.874153 -1.84955 37.231677 -7.9375 38.5 C-7.6075 37.18 -7.2775 35.86 -6.9375 34.5 C-6.2775 34.5 -5.6175 34.5 -4.9375 34.5 C-5.079337 32.749672 -5.226134 30.999745 -5.375 29.25 C-5.456211 28.275469 -5.537422 27.300938 -5.621094 26.296875 C-6.010092 22.834961 -6.010092 22.834961 -6.9375 19.5 C-9.299361 18.238542 -9.299361 18.238542 -11.9375 17.5 C-12.9275 17.17 -13.9175 16.84 -14.9375 16.5 C-17.575546 16.893973 -17.575546 16.893973 -19.9375 17.5 C-19.9375 18.16 -19.9375 18.82 -19.9375 19.5 C-20.5975 19.5 -21.2575 19.5 -21.9375 19.5 C-21.9375 15.87 -21.9375 12.24 -21.9375 8.5 C-26.3925 7.51 -26.3925 7.51 -30.9375 6.5 C-29.9375 3.5 -29.9375 3.5 -27.707031 2.113281 C-19.23394 -1.613983 -8.817231 -4.408615 0 0 Z " fill="#DC4E39" transform="translate(245.9375,39.5)"/>
<path d="M0 0 C2.995641 0.39748 4.858249 0.46652 7.875 -0.125 C11.604731 -0.622298 13.517648 0.613183 16.6875 2.5 C16.6875 3.49 16.6875 4.48 16.6875 5.5 C15.6975 5.5 14.7075 5.5 13.6875 5.5 C13.3575 6.49 13.0275 7.48 12.6875 8.5 C12.06875 8.335 11.45 8.17 10.8125 8 C8.726866 7.423654 8.726866 7.423654 6.6875 7.5 C6.81125 8.61375 6.81125 8.61375 6.9375 9.75 C6.6875 12.5 6.6875 12.5 5.0625 14.75 C1.018649 17.72968 -2.294484 17.614937 -7.1875 17.0625 C-8.21875 16.876875 -9.25 16.69125 -10.3125 16.5 C-10.3125 17.16 -10.3125 17.82 -10.3125 18.5 C-9.14332 18.537383 -7.974141 18.574766 -6.769531 18.613281 C-5.221323 18.678963 -3.673148 18.745409 -2.125 18.8125 C-1.356074 18.835059 -0.587148 18.857617 0.205078 18.880859 C4.773836 19.096552 8.011166 19.502374 11.6875 22.5 C13 25.6875 13 25.6875 13.6875 28.5 C9.487702 32.810319 7.639821 34.651766 1.625 34.8125 C-3.984377 34.768215 -8.596611 33.599013 -13.3125 30.5 C-15.3125 27.5 -15.3125 27.5 -15 24.9375 C-14.3125 22.5 -14.3125 22.5 -13.3125 20.5 C-13.35375 19.51 -13.395 18.52 -13.4375 17.5 C-13.39625 16.51 -13.355 15.52 -13.3125 14.5 C-12.3225 13.84 -11.3325 13.18 -10.3125 12.5 C-10.6425 11.84 -10.9725 11.18 -11.3125 10.5 C-11.712513 6.819877 -11.822799 5.151071 -9.5 2.1875 C-6.173933 -0.378323 -4.001875 -0.60823 0 0 Z " fill="#D7D7D7" transform="translate(129.3125,55.5)"/>
<path d="M0 0 C9.57 0 19.14 0 29 0 C29 0.99 29 1.98 29 3 C27.68 3 26.36 3 25 3 C25.011602 3.776016 25.023203 4.552031 25.035156 5.351562 C25.10418 13.614726 24.691219 21.767084 24 30 C25.32 29.67 26.64 29.34 28 29 C28.33 30.32 28.66 31.64 29 33 C25.04 33 21.08 33 17 33 C17 32.01 17 31.02 17 30 C18.32 30 19.64 30 21 30 C21 25.71 21 21.42 21 17 C16.71 17 12.42 17 8 17 C8 21.29 8 25.58 8 30 C9.65 30.33 11.3 30.66 13 31 C12.67 31.66 12.34 32.32 12 33 C8.04 33 4.08 33 0 33 C0 32.01 0 31.02 0 30 C1.65 30 3.3 30 5 30 C4.927812 29.128594 4.855625 28.257188 4.78125 27.359375 C4.172883 19.552004 3.870935 11.829937 4 4 C3.01 4 2.02 4 1 4 C0.67 2.68 0.34 1.36 0 0 Z " fill="#FBEEED" transform="translate(148,47)"/>
<path d="M0 0 C-0.33 3.63 -0.66 7.26 -1 11 C-0.34 11 0.32 11 1 11 C1 10.34 1 9.68 1 9 C5.862684 6.627959 5.862684 6.627959 8.886719 7.617188 C12.478052 9.55967 14.564971 11.057154 16 15 C16.195312 17.796875 16.195312 17.796875 16.125 20.75 C16.106953 21.734844 16.088906 22.719687 16.070312 23.734375 C16.047109 24.482031 16.023906 25.229687 16 26 C15.34 26 14.68 26 14 26 C13.907187 27.144688 13.907187 27.144688 13.8125 28.3125 C13 31 13 31 10.875 32.8125 C7.40495 34.245781 4.7249 34.137959 1 34 C-0.485 34.495 -0.485 34.495 -2 35 C-3.484375 33.925781 -3.484375 33.925781 -5 32 C-5.328125 28.917969 -5.328125 28.917969 -5.25 25.1875 C-5.233564 24.205114 -5.233564 24.205114 -5.216797 23.202881 C-5.068088 16.453621 -4.580252 9.724703 -4 3 C-5.98 3 -7.96 3 -10 3 C-9.67 1.68 -9.34 0.36 -9 -1 C-4.988431 -2.485766 -4.518697 -1.807479 0 0 Z " fill="#FBEEED" transform="translate(225,48)"/>
<path d="M0 0 C2.875 1.3125 2.875 1.3125 5 4 C6.933687 9.930591 7.814597 15.21444 5 21 C4.34 21 3.68 21 3 21 C2.835 21.639375 2.67 22.27875 2.5 22.9375 C1 25 1 25 -2.75 25.9375 C-6.910242 26.254615 -9.499408 25.360864 -13 23 C-15.431009 20.517389 -15.974698 19.279339 -16.292969 15.765625 C-16.240762 14.025391 -16.240762 14.025391 -16.1875 12.25 C-16.16043 11.079531 -16.133359 9.909063 -16.105469 8.703125 C-16.070664 7.811094 -16.035859 6.919063 -16 6 C-15.34 6 -14.68 6 -14 6 C-14 5.01 -14 4.02 -14 3 C-8.975053 -0.014968 -5.717999 -0.635333 0 0 Z " fill="#0A0A0A" transform="translate(100,56)"/>
<path d="M0 0 C3.24022 2.088142 4.666318 3.803539 5.707031 7.535156 C6.391622 12.186531 6.581988 15.995895 4.125 20.125 C1.273761 23.456785 -1.672597 23.958413 -5.914062 24.320312 C-8 24 -8 24 -11 21 C-11 24.3 -11 27.6 -11 31 C-9.35 31 -7.7 31 -6 31 C-6 31.66 -6 32.32 -6 33 C-10.29 33 -14.58 33 -19 33 C-18.67 31.68 -18.34 30.36 -18 29 C-16.68 29 -15.36 29 -14 29 C-14 20.42 -14 11.84 -14 3 C-15.65 3 -17.3 3 -19 3 C-19 2.34 -19 1.68 -19 1 C-15.333333 1 -11.666667 1 -8 1 C-5.111383 -0.444309 -3.203523 -0.376885 0 0 Z " fill="#E5E5E5" transform="translate(35,56)"/>
<path d="M0 0 C2.475 0.99 2.475 0.99 5 2 C5 2.66 5 3.32 5 4 C5.969375 3.484375 6.93875 2.96875 7.9375 2.4375 C12.415253 0.473895 16.305551 1.116464 21 2 C22.25 8.625 22.25 8.625 20 12 C18.68 11.67 17.36 11.34 16 11 C16.33 9.02 16.66 7.04 17 5 C13.252121 5.504522 9.673631 6.081592 6 7 C5.67 12.28 5.34 17.56 5 23 C7.64 23 10.28 23 13 23 C13 23.99 13 24.98 13 26 C7.06 26 1.12 26 -5 26 C-5 24.68 -5 23.36 -5 22 C-3.02 22 -1.04 22 1 22 C0.988398 21.275547 0.976797 20.551094 0.964844 19.804688 C0.917687 14.752167 0.926224 9.966212 2 5 C-0.64 5 -3.28 5 -6 5 C-5.67 3.68 -5.34 2.36 -5 1 C-3.35 1.33 -1.7 1.66 0 2 C0 1.34 0 0.68 0 0 Z " fill="#E9E9E9" transform="translate(55,55)"/>
<path d="M0 0 C2.255833 1.866896 2.914492 3.261159 3.25 6.160156 C3.411874 12.382189 3.411874 12.382189 1 16 C0.34 16 -0.32 16 -1 16 C-1 16.99 -1 17.98 -1 19 C-2.98 19 -4.96 19 -7 19 C-7 18.34 -7 17.68 -7 17 C-8.32 16.34 -9.64 15.68 -11 15 C-11.344354 10.944277 -11.521068 7.044988 -11 3 C-7.550607 -0.60983 -4.73659 -2.048255 0 0 Z " fill="#070707" transform="translate(35,59)"/>
<path d="M0 0 C2.332948 -0.042417 4.667026 -0.040929 7 0 C8 1 8 1 8.113525 2.949463 C8.108289 3.782117 8.103052 4.614771 8.097656 5.472656 C8.094434 6.371777 8.091211 7.270898 8.087891 8.197266 C8.079512 9.142793 8.071133 10.08832 8.0625 11.0625 C8.057988 12.011895 8.053477 12.961289 8.048828 13.939453 C8.037001 16.293031 8.02052 18.646485 8 21 C9.459477 20.939939 10.917793 20.851131 12.375 20.75 C13.187109 20.703594 13.999219 20.657187 14.835938 20.609375 C17.177243 20.213346 17.177243 20.213346 18.226562 18.015625 C18.481797 17.350469 18.737031 16.685312 19 16 C19.33 15.67 19.66 15.34 20 15 C20.234278 12.984054 20.413361 10.961526 20.5625 8.9375 C20.646289 7.832773 20.730078 6.728047 20.816406 5.589844 C20.907285 4.307871 20.907285 4.307871 21 3 C19.35 3 17.7 3 16 3 C16 2.01 16 1.02 16 0 C18.64 0 21.28 0 24 0 C24.027101 2.562572 24.046888 5.124854 24.0625 7.6875 C24.070879 8.40873 24.079258 9.129961 24.087891 9.873047 C24.105436 13.715554 23.935242 17.266395 23 21 C24.98 21 26.96 21 29 21 C28.67 21.99 28.34 22.98 28 24 C26.02 24 24.04 24 22 24 C21.34 22.35 20.68 20.7 20 19 C19.505 19.66 19.01 20.32 18.5 21 C14.831225 23.93502 12.633025 23.441241 8 23 C7.01 22.34 6.02 21.68 5 21 C4.659424 19.120605 4.659424 19.120605 4.707031 16.867188 C4.716699 16.061523 4.726367 15.255859 4.736328 14.425781 C4.761465 13.584023 4.786602 12.742266 4.8125 11.875 C4.826035 11.025508 4.83957 10.176016 4.853516 9.300781 C4.888918 7.200252 4.942726 5.100047 5 3 C3.02 3 1.04 3 -1 3 C-0.67 2.01 -0.34 1.02 0 0 Z " fill="#F7DBD8" transform="translate(181,57)"/>
<path d="M0 0 C2.875 1.3125 2.875 1.3125 5 4 C6.933687 9.930591 7.814597 15.21444 5 21 C4.34 21 3.68 21 3 21 C2.835 21.639375 2.67 22.27875 2.5 22.9375 C1 25 1 25 -2.75 25.9375 C-6.910242 26.254615 -9.499408 25.360864 -13 23 C-15.431009 20.517389 -15.974698 19.279339 -16.292969 15.765625 C-16.240762 14.025391 -16.240762 14.025391 -16.1875 12.25 C-16.16043 11.079531 -16.133359 9.909063 -16.105469 8.703125 C-16.070664 7.811094 -16.035859 6.919063 -16 6 C-15.34 6 -14.68 6 -14 6 C-14 5.01 -14 4.02 -14 3 C-8.975053 -0.014968 -5.717999 -0.635333 0 0 Z M-10 5 C-10.886585 7.591227 -10.886585 7.591227 -11 10 C-11.99 10 -12.98 10 -14 10 C-13.429836 15.818571 -13.429836 15.818571 -11 21 C-7.691061 22.177162 -4.485291 22.306399 -1 22 C2.313668 20.269776 2.313668 20.269776 4 17 C4.844775 12.883792 4.364552 9.833262 2.6875 6 C2.130625 5.34 1.57375 4.68 1 4 C0.01 4 -0.98 4 -2 4 C-2 3.34 -2 2.68 -2 2 C-5.668423 2 -7.10452 2.790291 -10 5 Z " fill="#E2E2E2" transform="translate(100,56)"/>
<path d="M0 0 C2.124726 -0.053866 4.249837 -0.092731 6.375 -0.125 C7.558359 -0.148203 8.741719 -0.171406 9.960938 -0.195312 C13 0 13 0 15 2 C13.1875 3.0625 13.1875 3.0625 11 4 C10.01 3.67 9.02 3.34 8 3 C8 6.63 8 10.26 8 14 C9.32 13.67 10.64 13.34 12 13 C11.67 14.32 11.34 15.64 11 17 C10.01 17 9.02 17 8 17 C8 21.29 8 25.58 8 30 C9.65 30.33 11.3 30.66 13 31 C12.67 31.66 12.34 32.32 12 33 C8.04 33 4.08 33 0 33 C0 32.01 0 31.02 0 30 C1.65 30 3.3 30 5 30 C4.927812 29.128594 4.855625 28.257188 4.78125 27.359375 C4.172883 19.552004 3.870935 11.829937 4 4 C3.01 4 2.02 4 1 4 C0.67 2.68 0.34 1.36 0 0 Z " fill="#FCF1EF" transform="translate(148,47)"/>
<path d="M0 0 C0 0.66 0 1.32 0 2 C0.99 2.33 1.98 2.66 3 3 C4.59186 12.066682 4.59186 12.066682 2.375 15.5625 C-0.142301 17.086129 -2.088241 17.676471 -5 18 C-5.33 17.01 -5.66 16.02 -6 15 C-6.99 15 -7.98 15 -9 15 C-10.440318 10.390981 -9.845346 6.391332 -8 2 C-5.15112 -0.279104 -3.77876 0 0 0 Z " fill="#E05844" transform="translate(233,60)"/>
<path d="M0 0 C1.249102 0.090234 2.498203 0.180469 3.785156 0.273438 C6.9375 0.625 6.9375 0.625 8.9375 1.625 C8.1875 6.375 8.1875 6.375 5.9375 8.625 C3.412743 8.823938 1.022353 8.903474 -1.5 8.875 C-2.18127 8.882734 -2.862539 8.890469 -3.564453 8.898438 C-7.276594 8.883894 -8.898394 8.734404 -12.0625 6.625 C-12.0625 5.305 -12.0625 3.985 -12.0625 2.625 C-11.4025 2.625 -10.7425 2.625 -10.0625 2.625 C-10.0625 1.965 -10.0625 1.305 -10.0625 0.625 C-6.433464 -0.584679 -3.807908 -0.291401 0 0 Z " fill="#070707" transform="translate(129.0625,77.375)"/>
<path d="M0 0 C1.581406 0.218309 3.159692 0.460209 4.734375 0.722656 C7.17023 1.148666 7.17023 1.148666 10.195312 0.382812 C13.925044 -0.114485 15.83796 1.120996 19.007812 3.007812 C19.007812 3.997813 19.007812 4.987813 19.007812 6.007812 C18.017812 6.007812 17.027813 6.007812 16.007812 6.007812 C15.677813 6.997813 15.347813 7.987813 15.007812 9.007812 C14.389062 8.842813 13.770312 8.677813 13.132812 8.507812 C11.047179 7.931466 11.047179 7.931466 9.007812 8.007812 C9.007812 9.657813 9.007812 11.307812 9.007812 13.007812 C6.360423 14.468441 5.113329 15.007812 2.007812 15.007812 C2.007812 14.347813 2.007812 13.687813 2.007812 13.007812 C2.667812 13.007812 3.327812 13.007812 4.007812 13.007812 C4.007812 10.037813 4.007812 7.067813 4.007812 4.007812 C1.037813 4.007812 -1.932187 4.007812 -4.992188 4.007812 C-3.803763 1.393279 -3.009661 0.011803 0 0 Z " fill="#F9ECEB" transform="translate(126.9921875,54.9921875)"/>
<path d="M0 0 C0 0.66 0 1.32 0 2 C1.98 2 3.96 2 6 2 C6 5.3 6 8.6 6 12 C1.71 12 -2.58 12 -7 12 C-7 8.37 -7 4.74 -7 1 C-2 0 -2 0 0 0 Z " fill="#E05743" transform="translate(163,49)"/>
<path d="M0 0 C1.895107 -0.081607 3.791245 -0.139465 5.6875 -0.1875 C6.743242 -0.222305 7.798984 -0.257109 8.886719 -0.292969 C12.416456 0.03919 14.207755 0.845983 17 3 C18.3125 6.1875 18.3125 6.1875 19 9 C14.699628 13.413539 12.903145 15.149129 6.75 15.25 C2.100005 15.225559 -1.019941 14.58166 -5 12 C-4.67 11.34 -4.34 10.68 -4 10 C-2.410586 10.034805 -2.410586 10.034805 -0.789062 10.070312 C0.598951 10.089069 1.986973 10.10727 3.375 10.125 C4.073672 10.141758 4.772344 10.158516 5.492188 10.175781 C7.328975 10.193443 9.16602 10.103033 11 10 C13.37158 7.971417 13.37158 7.971417 14 4 C9.38 3.01 4.76 2.02 0 1 C0 0.67 0 0.34 0 0 Z " fill="#E5E5E5" transform="translate(124,75)"/>
<path d="M0 0 C2.64 0 5.28 0 8 0 C9.333591 6.425483 9.333591 6.425483 7.875 8.9375 C5.363524 10.36067 3.844968 10.426745 1 10 C-0.8125 8.5 -0.8125 8.5 -2 7 C-1.34 4.69 -0.68 2.38 0 0 Z " fill="#3D1C17" transform="translate(123,59)"/>
<path d="M0 0 C2.314094 1.642261 4.166333 3.144641 5.9375 5.375 C5.6875 7.625 5.6875 7.625 4.9375 9.375 C4.2775 8.385 3.6175 7.395 2.9375 6.375 C0.344923 5.510808 -1.402877 5.199191 -4.074219 5.058594 C-4.831543 5.016699 -5.588867 4.974805 -6.369141 4.931641 C-7.547666 4.872666 -7.547666 4.872666 -8.75 4.8125 C-9.547285 4.769316 -10.34457 4.726133 -11.166016 4.681641 C-13.131314 4.575726 -15.096885 4.474874 -17.0625 4.375 C-17.0625 3.055 -17.0625 1.735 -17.0625 0.375 C-16.398633 0.470391 -15.734766 0.565781 -15.050781 0.664062 C-10.103664 1.28516 -4.029693 -1.221119 0 0 Z " fill="#060302" transform="translate(136.0625,70.625)"/>
<path d="M0 0 C0.33 0 0.66 0 1 0 C1.33 5.28 1.66 10.56 2 16 C4.97 16.33 7.94 16.66 11 17 C11 17.99 11 18.98 11 20 C5.06 20 -0.88 20 -7 20 C-7 18.68 -7 17.36 -7 16 C-5.02 16 -3.04 16 -1 16 C-1.011602 15.263945 -1.023203 14.527891 -1.035156 13.769531 C-1.04418 12.793711 -1.053203 11.817891 -1.0625 10.8125 C-1.074102 9.84957 -1.085703 8.886641 -1.097656 7.894531 C-1.004866 5.144235 -0.621117 2.675204 0 0 Z " fill="#C4C4C4" transform="translate(57,61)"/>
<path d="M0 0 C0.66 0.99 1.32 1.98 2 3 C4.742453 3.704457 7.341271 4.247584 10.125 4.6875 C10.879102 4.817051 11.633203 4.946602 12.410156 5.080078 C14.271519 5.398159 16.135544 5.700583 18 6 C17.67 6.66 17.34 7.32 17 8 C16.168555 7.927813 15.337109 7.855625 14.480469 7.78125 C13.393789 7.688438 12.307109 7.595625 11.1875 7.5 C10.108555 7.407188 9.029609 7.314375 7.917969 7.21875 C4.989092 6.962622 4.989092 6.962622 2 7 C2 7.66 2 8.32 2 9 C1.34 9 0.68 9 0 9 C0 10.32 0 11.64 0 13 C0.66 13 1.32 13 2 13 C2 13.99 2 14.98 2 16 C0.0625 15.375 0.0625 15.375 -2 14 C-2.875 11.0625 -2.875 11.0625 -3 8 C-2.34 7.01 -1.68 6.02 -1 5 C-0.615001 3.344505 -0.272069 1.677757 0 0 Z " fill="#CCCCCC" transform="translate(117,71)"/>
<path d="M0 0 C-0.33 0.99 -0.66 1.98 -1 3 C-1.99 3.33 -2.98 3.66 -4 4 C-5.218699 6.504475 -5.218699 6.504475 -6 9 C-6.99 9 -7.98 9 -9 9 C-9 11.31 -9 13.62 -9 16 C-9.66 15.67 -10.32 15.34 -11 15 C-11 11.7 -11 8.4 -11 5 C-10.34 5 -9.68 5 -9 5 C-9 4.01 -9 3.02 -9 2 C-5.564795 -0.290137 -4.014669 -0.17843 0 0 Z " fill="#EAEAEA" transform="translate(95,57)"/>
<path d="M0 0 C2 2 2 2 3 5 C5.105844 5.805636 5.105844 5.805636 7.5625 6.1875 C8.388789 6.346055 9.215078 6.504609 10.066406 6.667969 C11.023535 6.832324 11.023535 6.832324 12 7 C12 7.66 12 8.32 12 9 C12.99 9.33 13.98 9.66 15 10 C9.243442 11.091761 6.073249 11.421494 1 8 C-0.9375 6 -0.9375 6 -2 4 C-1 1 -1 1 0 0 Z " fill="#CCCCCC" transform="translate(86,71)"/>
<path d="M0 0 C0.33 0 0.66 0 1 0 C1.33 1.65 1.66 3.3 2 5 C2.33 5 2.66 5 3 5 C3 7.64 3 10.28 3 13 C4.65 13 6.3 13 8 13 C8 13.66 8 14.32 8 15 C3.71 15 -0.58 15 -5 15 C-4.67 13.68 -4.34 12.36 -4 11 C-2.68 11 -1.36 11 0 11 C0 7.37 0 3.74 0 0 Z " fill="#BFBFBF" transform="translate(21,74)"/>
<path d="M0 0 C1.258125 -0.020625 2.51625 -0.04125 3.8125 -0.0625 C4.520195 -0.074102 5.227891 -0.085703 5.957031 -0.097656 C8 0 8 0 11 1 C10.67 2.32 10.34 3.64 10 5 C9.34 5 8.68 5 8 5 C8 8.63 8 12.26 8 16 C5 13 5 13 4.707031 10.300781 C4.741836 9.314648 4.776641 8.328516 4.8125 7.3125 C4.853105 5.821699 4.853105 5.821699 4.894531 4.300781 C4.946738 3.161895 4.946738 3.161895 5 2 C3.35 2 1.7 2 0 2 C0 1.34 0 0.68 0 0 Z " fill="#C6C6C6" transform="translate(16,57)"/>
<path d="M0 0 C2.31 0 4.62 0 7 0 C8.405407 2.810815 7.936237 4.947717 7.6875 8.0625 C7.569551 9.688652 7.569551 9.688652 7.449219 11.347656 C7.300977 12.22293 7.152734 13.098203 7 14 C6.01 14.495 6.01 14.495 5 15 C5 11.04 5 7.08 5 3 C3.02 3 1.04 3 -1 3 C-0.67 2.01 -0.34 1.02 0 0 Z " fill="#FBEEEC" transform="translate(181,57)"/>
<path d="M0 0 C0.33 0 0.66 0 1 0 C1.025781 0.68707 1.051562 1.374141 1.078125 2.082031 C1.134844 2.983086 1.191562 3.884141 1.25 4.8125 C1.296406 5.70582 1.342813 6.599141 1.390625 7.519531 C2.158901 10.646807 3.388076 11.260459 6 13 C6 13.66 6 14.32 6 15 C7.32 15.33 8.64 15.66 10 16 C7.125 16.125 7.125 16.125 4 16 C3.34 15.34 2.68 14.68 2 14 C1.67 16.97 1.34 19.94 1 23 C0.67 23 0.34 23 0 23 C-0.196671 20.479587 -0.382543 17.959117 -0.5625 15.4375 C-0.618574 14.733027 -0.674648 14.028555 -0.732422 13.302734 C-1.051578 8.685616 -0.80878 4.559125 0 0 Z " fill="#F0F0F0" transform="translate(22,63)"/>
<path d="M0 0 C0.99 0 1.98 0 3 0 C3.593613 4.867627 2.609778 7.782257 -0.289062 11.585938 C-3.415066 14.16953 -7.082772 14.05974 -11 14 C-11 13.67 -11 13.34 -11 13 C-7.535 12.505 -7.535 12.505 -4 12 C-4 11.01 -4 10.02 -4 9 C-2 7 -2 7 0 6 C0 4.02 0 2.04 0 0 Z " fill="#C4C4C4" transform="translate(38,66)"/>
<path d="M0 0 C3.96 0.33 7.92 0.66 12 1 C12.33 1.99 12.66 2.98 13 4 C8.71 4 4.42 4 0 4 C0 2.68 0 1.36 0 0 Z " fill="#141414" transform="translate(119,71)"/>
</svg>
