<?xml version="1.0" encoding="UTF-8"?>
<!DOCTYPE svg PUBLIC "-//W3C//DTD SVG 1.1//EN" "http://www.w3.org/Graphics/SVG/1.1/DTD/svg11.dtd">
<svg xmlns="http://www.w3.org/2000/svg" version="1.1" width="300px" height="132px" style="shape-rendering:geometricPrecision; text-rendering:geometricPrecision; image-rendering:optimizeQuality; fill-rule:evenodd; clip-rule:evenodd" xmlns:xlink="http://www.w3.org/1999/xlink">
<g><path style="opacity:1" fill="#010000" d="M -0.5,-0.5 C 99.5,-0.5 199.5,-0.5 299.5,-0.5C 299.5,43.5 299.5,87.5 299.5,131.5C 199.5,131.5 99.5,131.5 -0.5,131.5C -0.5,87.5 -0.5,43.5 -0.5,-0.5 Z"/></g>
<g><path style="opacity:1" fill="#dd4e39" d="M 237.5,77.5 C 241.318,71.3114 241.484,64.9781 238,58.5C 235.904,56.7342 233.571,55.4009 231,54.5C 228.978,55.7865 226.811,56.7865 224.5,57.5C 223.772,54.1981 223.605,50.8648 224,47.5C 221.438,45.4926 218.604,45.1593 215.5,46.5C 215.5,47.5 215.5,48.5 215.5,49.5C 217.144,49.2865 218.644,49.6198 220,50.5C 219.908,60.3835 219.908,70.0502 220,79.5C 221,80.5 222,81.5 223,82.5C 225.624,80.3011 228.458,79.9678 231.5,81.5C 229.6,87.0585 227.1,92.3918 224,97.5C 218.289,104.137 211.123,106.304 202.5,104C 198.671,102.002 194.671,100.502 190.5,99.5C 188.701,99.577 187.034,100.077 185.5,101C 178.159,109.014 169.159,112.014 158.5,110C 151.773,106.935 147.606,101.769 146,94.5C 145.209,89.1263 144.209,83.793 143,78.5C 140.331,75.0003 137.498,71.667 134.5,68.5C 135.411,65.5484 135.578,62.5484 135,59.5C 136.28,61.3079 137.947,62.6413 140,63.5C 141.482,61.8881 143.315,60.8881 145.5,60.5C 145.719,59.325 145.386,58.325 144.5,57.5C 142.667,56.9479 141,56.1145 139.5,55C 136.965,54.3826 134.632,54.8826 132.5,56.5C 129.601,55.3584 126.601,54.6917 123.5,54.5C 120.958,48.4203 120.124,42.087 121,35.5C 125.285,26.0533 132.118,23.5533 141.5,28C 144.5,31 147.5,34 150.5,37C 153.833,37.6667 157.167,37.6667 160.5,37C 164.642,34.427 168.976,32.0936 173.5,30C 176.833,29.3333 180.167,29.3333 183.5,30C 188.732,35.1426 193.732,40.4759 198.5,46C 201.833,46.6667 205.167,46.6667 208.5,46C 214.718,43.0575 221.051,40.3909 227.5,38C 240.733,34.9505 250.233,39.4505 256,51.5C 257.841,65.8306 251.674,74.4973 237.5,77.5 Z"/></g>
<g><path style="opacity:1" fill="#fcedeb" d="M 164.5,45.5 C 168.5,45.5 172.5,45.5 176.5,45.5C 176.5,46.8333 176.5,48.1667 176.5,49.5C 175.167,49.5 173.833,49.5 172.5,49.5C 172.119,58.4978 171.786,67.4978 171.5,76.5C 174.861,74.5163 176.528,75.5163 176.5,79.5C 172.486,79.6655 168.486,79.4988 164.5,79C 163.167,78.3333 163.167,77.6667 164.5,77C 165.793,76.51 167.127,76.3433 168.5,76.5C 168.5,72.1667 168.5,67.8333 168.5,63.5C 164.167,63.5 159.833,63.5 155.5,63.5C 155.5,67.8333 155.5,72.1667 155.5,76.5C 156.873,76.3433 158.207,76.51 159.5,77C 160.833,77.6667 160.833,78.3333 159.5,79C 155.514,79.4988 151.514,79.6655 147.5,79.5C 147.5,78.5 147.5,77.5 147.5,76.5C 149.167,76.5 150.833,76.5 152.5,76.5C 152.251,67.7901 151.918,59.1235 151.5,50.5C 149.41,50.5499 148.077,49.5499 147.5,47.5C 152.34,46.2446 157.173,46.2446 162,47.5C 163.301,47.3613 164.134,46.6946 164.5,45.5 Z"/></g>
<g><path style="opacity:1" fill="#fceeec" d="M 237.5,77.5 C 235.537,78.8202 233.537,80.1535 231.5,81.5C 228.458,79.9678 225.624,80.3011 223,82.5C 222,81.5 221,80.5 220,79.5C 219.908,70.0502 219.908,60.3835 220,50.5C 218.644,49.6198 217.144,49.2865 215.5,49.5C 215.5,48.5 215.5,47.5 215.5,46.5C 218.604,45.1593 221.438,45.4926 224,47.5C 223.605,50.8648 223.772,54.1981 224.5,57.5C 226.811,56.7865 228.978,55.7865 231,54.5C 233.571,55.4009 235.904,56.7342 238,58.5C 241.484,64.9781 241.318,71.3114 237.5,77.5 Z"/></g>
<g><path style="opacity:1" fill="#e15742" d="M 160.5,48.5 C 162.916,49.9682 165.583,50.6349 168.5,50.5C 168.5,53.8333 168.5,57.1667 168.5,60.5C 164.001,60.1669 159.668,60.1669 155.5,60.5C 155.5,56.8333 155.5,53.1667 155.5,49.5C 156.822,49.33 157.989,49.6634 159,50.5C 159.717,49.9558 160.217,49.2891 160.5,48.5 Z"/></g>
<g><path style="opacity:1" fill="#eae4e3" d="M 123.5,54.5 C 126.601,54.6917 129.601,55.3584 132.5,56.5C 134.632,54.8826 136.965,54.3826 139.5,55C 141,56.1145 142.667,56.9479 144.5,57.5C 145.386,58.325 145.719,59.325 145.5,60.5C 143.315,60.8881 141.482,61.8881 140,63.5C 137.947,62.6413 136.28,61.3079 135,59.5C 135.578,62.5484 135.411,65.5484 134.5,68.5C 130.274,72.8384 125.441,73.5051 120,70.5C 117.659,71.0069 117.159,72.1735 118.5,74C 125.246,74.1213 131.913,74.788 138.5,76C 144.198,81.6969 143.198,86.0302 135.5,89C 127.939,90.5317 121.106,89.0317 115,84.5C 112.709,81.1653 113.209,78.332 116.5,76C 114.743,72.2676 115.743,69.601 119.5,68C 116.017,62.0572 117.35,57.5572 123.5,54.5 Z"/></g>
<g><path style="opacity:1" fill="#e0e0e0" d="M 56.5,77.5 C 57.8333,71.8333 57.8333,66.1667 56.5,60.5C 54.0521,59.5269 51.3854,59.1936 48.5,59.5C 48.33,58.1779 48.6634,57.0113 49.5,56C 51.556,55.6892 53.556,55.1892 55.5,54.5C 57.3492,55.593 59.0158,56.9263 60.5,58.5C 63.7968,56.5194 67.1301,55.5194 70.5,55.5C 77.85,56.3268 79.35,59.6601 75,65.5C 72.5237,67.0628 71.0237,66.3962 70.5,63.5C 70.5288,61.9707 71.1955,60.804 72.5,60C 71.8921,59.1301 71.0588,58.6301 70,58.5C 66.4492,59.0076 63.2826,60.3409 60.5,62.5C 59.5524,67.4351 59.219,72.4351 59.5,77.5C 62.1667,77.5 64.8333,77.5 67.5,77.5C 67.5,78.5 67.5,79.5 67.5,80.5C 61.4015,79.7915 55.4015,79.6249 49.5,80C 48.1667,79 48.1667,78 49.5,77C 51.7972,76.9822 54.1305,77.1489 56.5,77.5 Z"/></g>
<g><path style="opacity:1" fill="#e3e3e3" d="M 91.5,55.5 C 101.819,54.6503 106.819,59.4836 106.5,70C 103.647,80.5191 97.3141,83.5191 87.5,79C 83.4369,73.8393 82.4369,68.006 84.5,61.5C 86.2728,58.7184 88.6061,56.7184 91.5,55.5 Z"/></g>
<g><path style="opacity:1" fill="#fae1de" d="M 180.5,56.5 C 183.119,56.2317 185.619,56.565 188,57.5C 188.5,64.1583 188.666,70.825 188.5,77.5C 199.614,76.6888 203.947,70.6888 201.5,59.5C 199.25,59.8186 197.25,59.3186 195.5,58C 198.278,56.6081 201.278,56.1081 204.5,56.5C 204.72,63.5433 204.386,70.5433 203.5,77.5C 205.604,77.2011 207.604,77.5344 209.5,78.5C 208.652,79.9911 207.319,80.6578 205.5,80.5C 202.337,79.8701 200.837,77.8701 201,74.5C 197.19,79.6685 192.357,80.8352 186.5,78C 185.524,71.9242 185.19,65.7576 185.5,59.5C 183.396,59.7989 181.396,59.4656 179.5,58.5C 179.863,57.8165 180.196,57.1499 180.5,56.5 Z"/></g>
<g><path style="opacity:1" fill="#0d0d0d" d="M 85.5,67.5 C 87.1827,66.1466 88.5161,64.4799 89.5,62.5C 89.8286,59.9683 90.9952,58.9683 93,59.5C 93.7387,58.4258 94.7387,57.7591 96,57.5C 102.343,60.5242 104.677,65.5242 103,72.5C 99.2897,77.7646 94.4564,78.9313 88.5,76C 87.0708,73.3103 86.0708,70.4769 85.5,67.5 Z"/></g>
<g><path style="opacity:1" fill="#9d9d9d" d="M 106.5,57.5 C 108.337,57.6395 108.67,58.3061 107.5,59.5C 106.702,59.0431 106.369,58.3764 106.5,57.5 Z"/></g>
<g><path style="opacity:1" fill="#d24b37" d="M 130.5,65.5 C 129.167,63.5 127.833,61.5 126.5,59.5C 127.708,58.218 129.042,58.218 130.5,59.5C 131.754,61.6431 131.754,63.6431 130.5,65.5 Z"/></g>
<g><path style="opacity:1" fill="#110f0f" d="M 126.5,59.5 C 127.833,61.5 129.167,63.5 130.5,65.5C 127.546,69.501 124.38,69.501 121,65.5C 120.952,63.4559 121.452,61.4559 122.5,59.5C 123.7,58.7084 125.033,58.7084 126.5,59.5 Z"/></g>
<g><path style="opacity:1" fill="#dedede" d="M 16.5,85.5 C 17.9305,85.4208 19.2638,85.7542 20.5,86.5C 21.8137,81.3477 21.8137,76.3477 20.5,71.5C 20.5,67.1667 20.5,62.8333 20.5,58.5C 18.712,58.7852 17.0453,58.4519 15.5,57.5C 18.6447,56.0045 21.4781,56.3379 24,58.5C 34.1716,53.4467 39.6716,56.78 40.5,68.5C 39.3746,76.7982 34.7079,80.2982 26.5,79C 25,78.1667 23.8333,77 23,75.5C 23.2384,79.1087 23.4051,82.7754 23.5,86.5C 25.288,86.2148 26.9547,86.5481 28.5,87.5C 24.1667,88.8333 19.8333,88.8333 15.5,87.5C 15.8627,86.8165 16.1961,86.1499 16.5,85.5 Z"/></g>
<g><path style="opacity:1" fill="#070707" d="M 29.5,57.5 C 32.9089,57.7328 35.4089,59.3995 37,62.5C 38.0037,65.9926 37.5037,69.1592 35.5,72C 35.8333,72.3333 36.1667,72.6667 36.5,73C 32.7231,78.6643 28.5564,78.831 24,73.5C 22.1648,66.6096 23.9982,61.2763 29.5,57.5 Z"/></g>
<g><path style="opacity:1" fill="#e05641" d="M 228.5,59.5 C 231.014,59.7539 233.348,60.5873 235.5,62C 234.521,63.7785 234.854,65.4452 236.5,67C 236.813,72.5502 234.313,76.0502 229,77.5C 227.334,76.0528 225.501,74.7194 223.5,73.5C 222.853,69.389 223.519,65.389 225.5,61.5C 226.739,61.0576 227.739,60.3909 228.5,59.5 Z"/></g>
<g><path style="opacity:1" fill="#818181" d="M 89.5,62.5 C 88.5161,64.4799 87.1827,66.1466 85.5,67.5C 85.7377,64.9315 87.071,63.2648 89.5,62.5 Z"/></g>
<g><path style="opacity:1" fill="#9c9c9c" d="M 56.5,60.5 C 57.8333,66.1667 57.8333,71.8333 56.5,77.5C 56.1804,71.8745 56.1804,66.2079 56.5,60.5 Z"/></g>
<g><path style="opacity:1" fill="#0a0a0a" d="M 121.5,76.5 C 125.794,76.577 129.961,77.2436 134,78.5C 135.717,77.6119 136.884,78.2786 137.5,80.5C 137.124,82.3829 136.124,83.8829 134.5,85C 129.5,85.6667 124.5,85.6667 119.5,85C 115.684,81.3958 116.351,78.5625 121.5,76.5 Z"/></g>
<g><path style="opacity:1" fill="#7c7c7c" d="M 20.5,71.5 C 21.8137,76.3477 21.8137,81.3477 20.5,86.5C 19.2638,85.7542 17.9305,85.4208 16.5,85.5C 17.5676,84.5655 18.901,84.2322 20.5,84.5C 20.5,80.1667 20.5,75.8333 20.5,71.5 Z"/></g>
</svg>
