<svg version="1.1" id="Layer_1" xmlns="http://www.w3.org/2000/svg" xmlns:xlink="http://www.w3.org/1999/xlink" x="0px" y="0px"
	 width="100%" viewBox="0 0 300 132" enable-background="new 0 0 300 132" xml:space="preserve">
<path fill="#010100" opacity="1.000000" stroke="none" 
	d="
M193.000000,133.000000 
	C128.666672,133.000000 64.833351,133.000000 1.000017,133.000000 
	C1.000011,89.000015 1.000011,45.000027 1.000006,1.000029 
	C100.999977,1.000019 200.999954,1.000019 300.999939,1.000010 
	C300.999969,44.999969 300.999969,88.999939 301.000000,132.999954 
	C265.166656,133.000000 229.333328,133.000000 193.000000,133.000000 
M122.171539,88.744522 
	C132.536255,93.347214 139.506973,91.785675 144.826370,84.125908 
	C145.558044,87.167763 146.395767,90.188614 147.003143,93.255089 
	C149.711868,106.930550 158.030334,113.871315 170.650497,111.614220 
	C175.250610,110.791489 179.772537,107.818459 183.609680,104.884270 
	C188.218475,101.360016 192.595886,100.163528 197.878784,102.669121 
	C199.526917,103.450813 201.217224,104.158485 202.929626,104.787254 
	C212.096069,108.153015 220.335007,105.953476 225.737000,97.850243 
	C228.638565,93.497772 230.343811,88.347801 233.146118,83.235855 
	C235.172577,81.748680 237.199020,80.261513 239.710480,78.803337 
	C240.131897,78.723106 240.275223,78.479057 240.074310,78.066704 
	C240.074310,78.066704 240.084824,78.132294 240.839691,78.289818 
	C243.969513,76.789986 247.373581,75.680672 250.175018,73.713257 
	C257.121033,68.835121 259.751709,60.429356 257.127655,53.033180 
	C254.033798,44.312607 245.222733,37.664417 235.907501,38.864948 
	C229.161362,39.734379 222.500870,42.398628 216.169083,45.117069 
	C203.077820,50.737576 196.704041,48.190918 191.272217,37.718346 
	C187.528183,30.499834 180.738525,28.840733 173.308380,32.330574 
	C170.005692,33.881802 166.972504,36.003429 163.680664,37.581821 
	C157.259552,40.660625 152.310669,39.578007 147.543167,34.321613 
	C146.872513,33.582176 146.233841,32.813236 145.551666,32.084812 
	C141.678925,27.949438 137.036606,26.496132 131.523163,28.069548 
	C126.256134,29.572638 123.828590,33.473869 122.606064,38.465588 
	C121.053520,44.804844 122.777870,50.635197 124.722496,56.793163 
	C118.481956,60.750610 117.768097,62.762524 120.264511,69.357414 
	C116.825233,71.717987 116.842239,71.716019 117.429176,76.787979 
	C117.488815,77.303307 117.285873,77.910995 117.038940,78.390404 
	C113.947632,84.391998 115.254036,87.079903 122.171539,88.744522 
M58.316746,78.623840 
	C56.377781,78.425972 54.426090,78.013733 52.505638,78.127731 
	C51.646072,78.178757 50.849155,79.285172 50.023811,79.912643 
	C50.504517,80.489349 50.975670,81.558281 51.467381,81.567833 
	C57.423737,81.683395 63.383121,81.642761 69.341721,81.642761 
	C69.375832,80.855431 69.409943,80.068092 69.444046,79.280762 
	C66.701912,79.085182 63.959774,78.889595 60.586376,78.648994 
	C62.654881,73.554451 58.089386,67.463509 63.636963,63.374302 
	C66.345062,61.378124 69.554535,59.281952 71.901787,60.471809 
	C72.451088,63.599155 72.771545,65.423584 73.091995,67.248016 
	C74.610756,66.643883 77.291046,66.234711 77.431290,65.399200 
	C77.858246,62.855522 78.869904,58.976402 75.206375,58.323208 
	C71.581978,57.676987 67.668922,58.605881 63.888241,58.914471 
	C63.058460,58.982201 61.676064,59.741756 61.523121,59.517567 
	C59.312515,56.277275 56.014702,56.832012 52.986221,57.187126 
	C51.743946,57.332787 50.649994,58.743397 49.488571,59.578590 
	C49.772079,60.041134 50.055588,60.503681 50.339100,60.966225 
	C52.770435,60.966225 55.201771,60.966225 57.644867,60.966225 
	C57.998753,66.712555 58.342865,72.300217 58.316746,78.623840 
M34.065781,56.954456 
	C28.604452,58.831524 22.841017,58.248436 17.103611,57.877312 
	C17.109966,58.471443 17.116323,59.065575 17.122679,59.659706 
	C18.851257,59.921288 20.579836,60.182869 22.215178,60.430340 
	C22.215178,67.062172 22.195864,73.357193 22.223295,79.652008 
	C22.237097,82.819084 23.995531,86.813774 18.317308,87.081810 
	C17.841080,87.104286 17.434917,88.611107 16.899883,89.607727 
	C21.603056,89.607727 25.948563,89.607727 30.294067,89.607727 
	C30.324463,89.107430 30.354858,88.607124 30.385254,88.106827 
	C28.615826,87.938042 26.846397,87.769264 24.882040,87.581886 
	C24.882040,84.793518 24.882040,81.990120 24.882040,79.336449 
	C27.206230,79.941841 29.221264,80.977272 31.178133,80.877052 
	C36.272121,80.616173 41.101643,76.441544 41.572651,71.765625 
	C42.087585,66.653595 41.391647,59.823608 34.065781,56.954456 
M107.280533,67.959991 
	C106.393005,64.081467 106.620682,59.541306 101.718178,57.940369 
	C90.977020,54.432785 83.347969,60.818417 84.888603,71.980049 
	C85.944618,79.630722 90.503685,82.909889 98.587257,81.832985 
	C104.376923,81.061668 108.179428,75.361504 107.280533,67.959991 
z"/>
<path fill="#DD4F3B" opacity="1.000000" stroke="none" 
	d="
M232.588882,83.557686 
	C230.343811,88.347801 228.638565,93.497772 225.737000,97.850243 
	C220.335007,105.953476 212.096069,108.153015 202.929626,104.787254 
	C201.217224,104.158485 199.526917,103.450813 197.878784,102.669121 
	C192.595886,100.163528 188.218475,101.360016 183.609680,104.884270 
	C179.772537,107.818459 175.250610,110.791489 170.650497,111.614220 
	C158.030334,113.871315 149.711868,106.930550 147.003143,93.255089 
	C146.395767,90.188614 145.558044,87.167763 144.374146,83.655716 
	C143.892197,82.736618 143.862488,82.287704 143.764008,81.478813 
	C143.761459,75.580307 138.893448,73.555794 136.024323,69.798538 
	C136.689072,67.585747 137.240509,65.762863 137.790512,63.944714 
	C142.279419,65.140648 142.279419,65.140648 146.918152,59.895603 
	C145.770599,59.234234 144.731689,58.181499 143.588501,58.052433 
	C137.488388,57.363743 131.362183,56.905983 125.245003,56.368343 
	C122.777870,50.635197 121.053520,44.804844 122.606064,38.465588 
	C123.828590,33.473869 126.256134,29.572638 131.523163,28.069548 
	C137.036606,26.496132 141.678925,27.949438 145.551666,32.084812 
	C146.233841,32.813236 146.872513,33.582176 147.543167,34.321613 
	C152.310669,39.578007 157.259552,40.660625 163.680664,37.581821 
	C166.972504,36.003429 170.005692,33.881802 173.308380,32.330574 
	C180.738525,28.840733 187.528183,30.499834 191.272217,37.718346 
	C196.704041,48.190918 203.077820,50.737576 216.169083,45.117069 
	C222.500870,42.398628 229.161362,39.734379 235.907501,38.864948 
	C245.222733,37.664417 254.033798,44.312607 257.127655,53.033180 
	C259.751709,60.429356 257.121033,68.835121 250.175018,73.713257 
	C247.373581,75.680672 243.969513,76.789986 240.525040,77.824852 
	C240.581909,76.447212 241.013687,75.553986 241.315460,74.618805 
	C243.785538,66.964241 241.548172,59.751442 235.073608,57.563831 
	C232.213242,56.597374 228.515610,58.108887 224.807541,58.540966 
	C225.061523,56.910213 225.846039,54.911453 225.523209,53.111275 
	C225.184570,51.222847 223.997650,48.217163 222.802155,48.021904 
	C220.472794,47.641441 216.622543,46.746376 216.537231,51.689472 
	C221.050934,50.127724 221.730621,53.165848 221.716766,56.315319 
	C221.688568,62.734264 221.095367,69.157616 221.244659,75.567284 
	C221.310074,78.375206 222.625641,81.154022 223.373535,83.946053 
	C227.387329,79.871597 229.988968,82.533737 232.588882,83.557686 
M153.010223,53.061287 
	C153.401855,61.238331 153.793503,69.415375 154.179398,77.472588 
	C151.979828,77.978531 150.405563,78.340645 148.831314,78.702759 
	C148.890656,79.236832 148.950012,79.770905 149.009354,80.304977 
	C153.211121,80.304977 157.412872,80.304977 161.614639,80.304977 
	C161.699844,79.904709 161.785049,79.504448 161.870239,79.104179 
	C160.231873,78.484596 158.593506,77.865013 157.339386,77.390747 
	C157.339386,73.075371 157.339386,69.157860 157.339386,65.335220 
	C161.790207,65.335220 165.851044,65.335220 170.206406,65.335220 
	C170.206406,69.648346 170.206406,73.564468 170.206406,77.451813 
	C168.558075,78.000053 167.035431,78.506485 165.512787,79.012924 
	C165.582932,79.628906 165.653061,80.244881 165.723206,80.860863 
	C169.377548,80.860863 173.034470,80.926216 176.683151,80.782608 
	C177.168900,80.763496 178.117355,79.441505 177.974579,79.144577 
	C177.644852,78.458908 176.848343,77.777054 176.107559,77.568703 
	C175.285904,77.337593 174.315659,77.634819 173.628662,77.685783 
	C173.628662,68.774689 173.628662,60.182037 173.628662,52.771851 
	C175.893707,51.115005 177.239716,50.130421 178.585724,49.145836 
	C178.310928,48.810654 178.036148,48.475468 177.761353,48.140285 
	C168.229156,48.140285 158.696945,48.140285 149.164734,48.140285 
	C149.006088,48.663040 148.847443,49.185799 148.688797,49.708553 
	C150.031555,50.557587 151.374313,51.406616 153.010223,53.061287 
M202.773026,68.693680 
	C202.199081,71.087196 201.625122,73.480713 201.247757,75.054413 
	C201.999329,76.438843 202.568680,77.600174 203.242371,78.697426 
	C203.939285,79.832489 204.625534,81.701317 205.516525,81.826645 
	C207.008438,82.036499 208.659210,81.116829 210.243134,80.672531 
	C210.137360,80.199234 210.031586,79.725945 209.925827,79.252655 
	C208.373611,79.040573 206.821396,78.828491 205.859695,78.697090 
	C205.859695,73.103455 205.932175,67.830643 205.813171,62.562157 
	C205.779785,61.083740 205.389969,58.455620 204.808533,58.352245 
	C202.560516,57.952572 200.169022,58.359955 197.830994,58.466682 
	C197.827545,59.041103 197.824081,59.615524 197.820633,60.189945 
	C199.426193,60.578621 201.031738,60.967300 202.849228,61.407288 
	C202.849228,63.626324 202.849228,65.758652 202.773026,68.693680 
M186.827499,66.608276 
	C188.102966,70.920242 184.932526,76.220642 189.739029,81.009979 
	C189.739029,74.007660 189.900879,68.262398 189.633835,62.537144 
	C189.560089,60.956390 188.469498,58.389038 187.385696,58.118866 
	C185.510147,57.651329 183.275314,58.625042 181.191193,58.994194 
	C181.284256,59.534523 181.377319,60.074852 181.470398,60.615181 
	C183.190857,60.803017 184.911316,60.990852 186.890823,61.206970 
	C186.890823,62.707359 186.890823,64.178947 186.827499,66.608276 
z"/>
<path fill="#FBF1EF" opacity="1.000000" stroke="none" 
	d="
M232.867493,83.396774 
	C229.988968,82.533737 227.387329,79.871597 223.373535,83.946053 
	C222.625641,81.154022 221.310074,78.375206 221.244659,75.567284 
	C221.095367,69.157616 221.688568,62.734264 221.716766,56.315319 
	C221.730621,53.165848 221.050934,50.127724 216.537231,51.689472 
	C216.622543,46.746376 220.472794,47.641441 222.802155,48.021904 
	C223.997650,48.217163 225.184570,51.222847 225.523209,53.111275 
	C225.846039,54.911453 225.061523,56.910213 224.807541,58.540966 
	C228.515610,58.108887 232.213242,56.597374 235.073608,57.563831 
	C241.548172,59.751442 243.785538,66.964241 241.315460,74.618805 
	C241.013687,75.553986 240.581909,76.447212 240.147614,77.746094 
	C240.084824,78.132294 240.074310,78.066704 239.875916,78.060265 
	C239.330750,78.171196 239.180069,78.411369 239.225464,78.774338 
	C237.199020,80.261513 235.172577,81.748680 232.867493,83.396774 
M224.513260,71.657898 
	C223.877777,76.645195 228.351517,78.125061 231.152496,78.571632 
	C234.497238,79.104881 236.879150,75.805977 237.386398,72.083961 
	C237.520767,71.098007 237.873291,69.916061 237.494614,69.126892 
	C236.196213,66.420876 235.005386,63.444672 232.928009,61.453712 
	C232.233871,60.788456 228.283203,62.204910 227.109528,63.688801 
	C225.637375,65.550072 225.490677,68.459679 224.513260,71.657898 
z"/>
<path fill="#EEE6E6" opacity="1.000000" stroke="none" 
	d="
M124.983749,56.580753 
	C131.362183,56.905983 137.488388,57.363743 143.588501,58.052433 
	C144.731689,58.181499 145.770599,59.234234 146.918152,59.895603 
	C142.279419,65.140648 142.279419,65.140648 137.790512,63.944714 
	C137.240509,65.762863 136.689072,67.585747 135.741104,69.967957 
	C132.233292,73.703957 128.592636,73.731033 124.562012,72.660545 
	C122.858017,72.207985 120.933670,72.585098 119.109474,72.585098 
	C118.982605,73.221748 118.855736,73.858398 118.728859,74.495041 
	C120.147751,75.087837 121.566635,75.680634 123.168190,76.451202 
	C123.896614,77.020752 124.442368,77.412537 124.611137,77.917114 
	C123.200806,78.435677 122.065636,78.687035 121.159035,79.284958 
	C119.932091,80.094147 118.098953,81.077141 117.971779,82.156013 
	C117.842484,83.252861 119.344772,84.678207 120.371376,85.725639 
	C121.019363,86.386772 122.105385,86.618568 122.843781,87.269798 
	C122.391014,87.695915 122.089394,87.895180 121.787773,88.094437 
	C115.254036,87.079903 113.947632,84.391998 117.038940,78.390404 
	C117.285873,77.910995 117.488815,77.303307 117.429176,76.787979 
	C116.842239,71.716019 116.825233,71.717987 120.264511,69.357414 
	C117.768097,62.762524 118.481956,60.750610 124.983749,56.580753 
M123.518753,68.274704 
	C125.771255,68.701653 128.029846,69.416687 130.272324,69.369240 
	C130.895477,69.356064 132.109070,66.996544 131.955093,65.862381 
	C131.361252,61.488468 127.870903,60.621216 123.793633,60.000252 
	C123.525116,62.693291 123.275444,65.197304 123.518753,68.274704 
z"/>
<path fill="#E4E4E4" opacity="1.000000" stroke="none" 
	d="
M58.501862,78.255859 
	C58.342865,72.300217 57.998753,66.712555 57.644867,60.966225 
	C55.201771,60.966225 52.770435,60.966225 50.339100,60.966225 
	C50.055588,60.503681 49.772079,60.041134 49.488571,59.578590 
	C50.649994,58.743397 51.743946,57.332787 52.986221,57.187126 
	C56.014702,56.832012 59.312515,56.277275 61.523121,59.517567 
	C61.676064,59.741756 63.058460,58.982201 63.888241,58.914471 
	C67.668922,58.605881 71.581978,57.676987 75.206375,58.323208 
	C78.869904,58.976402 77.858246,62.855522 77.431290,65.399200 
	C77.291046,66.234711 74.610756,66.643883 73.091995,67.248016 
	C72.771545,65.423584 72.451088,63.599155 71.901787,60.471809 
	C69.554535,59.281952 66.345062,61.378124 63.636963,63.374302 
	C58.089386,67.463509 62.654881,73.554451 60.586376,78.648994 
	C63.959774,78.889595 66.701912,79.085182 69.444046,79.280762 
	C69.409943,80.068092 69.375832,80.855431 69.341721,81.642761 
	C63.383121,81.642761 57.423737,81.683395 51.467381,81.567833 
	C50.975670,81.558281 50.504517,80.489349 50.023811,79.912643 
	C50.849155,79.285172 51.646072,78.178757 52.505638,78.127731 
	C54.426090,78.013733 56.377781,78.425972 58.501862,78.255859 
z"/>
<path fill="#DCDCDC" opacity="1.000000" stroke="none" 
	d="
M34.460468,57.026798 
	C41.391647,59.823608 42.087585,66.653595 41.572651,71.765625 
	C41.101643,76.441544 36.272121,80.616173 31.178133,80.877052 
	C29.221264,80.977272 27.206230,79.941841 24.882040,79.336449 
	C24.882040,81.990120 24.882040,84.793518 24.882040,87.581886 
	C26.846397,87.769264 28.615826,87.938042 30.385254,88.106827 
	C30.354858,88.607124 30.324463,89.107430 30.294067,89.607727 
	C25.948563,89.607727 21.603056,89.607727 16.899883,89.607727 
	C17.434917,88.611107 17.841080,87.104286 18.317308,87.081810 
	C23.995531,86.813774 22.237097,82.819084 22.223295,79.652008 
	C22.195864,73.357193 22.215178,67.062172 22.215178,60.430340 
	C20.579836,60.182869 18.851257,59.921288 17.122679,59.659706 
	C17.116323,59.065575 17.109966,58.471443 17.103611,57.877312 
	C22.841017,58.248436 28.604452,58.831524 34.460468,57.026798 
M35.944675,61.261955 
	C33.817123,58.609356 31.519344,59.325748 28.912247,60.620468 
	C23.662027,63.227798 24.258205,68.038193 25.080795,72.202057 
	C25.544060,74.547043 28.080385,77.156013 30.351746,78.225723 
	C31.787582,78.901939 35.133591,77.555405 36.439819,76.073410 
	C39.707146,72.366425 40.408123,64.966614 35.944675,61.261955 
z"/>
<path fill="#E3E3E3" opacity="1.000000" stroke="none" 
	d="
M107.289612,68.367020 
	C108.179428,75.361504 104.376923,81.061668 98.587257,81.832985 
	C90.503685,82.909889 85.944618,79.630722 84.888603,71.980049 
	C83.347969,60.818417 90.977020,54.432785 101.718178,57.940369 
	C106.620682,59.541306 106.393005,64.081467 107.289612,68.367020 
M88.822060,74.662498 
	C90.293091,78.964516 94.153954,79.422180 97.639717,79.321831 
	C101.874290,79.199944 103.747421,75.588257 104.601051,72.031265 
	C106.059113,65.955635 101.266907,58.613049 96.629723,59.198132 
	C91.319168,59.868179 86.228432,68.987892 88.822060,74.662498 
z"/>
<path fill="#DFDFDF" opacity="1.000000" stroke="none" 
	d="
M124.988121,77.804321 
	C124.442368,77.412537 123.896614,77.020752 123.565575,76.348099 
	C131.026733,75.593582 138.495056,74.375656 143.361359,81.907036 
	C143.397278,81.962624 143.670425,81.864929 143.832794,81.838799 
	C143.862488,82.287704 143.892197,82.736618 144.022430,83.506302 
	C139.506973,91.785675 132.536255,93.347214 121.979660,88.419479 
	C122.089394,87.895180 122.391014,87.695915 123.305161,87.250259 
	C128.249634,86.517387 132.616928,86.215385 136.885315,85.397255 
	C137.798615,85.222214 139.010391,83.098541 138.883011,82.013641 
	C138.762405,80.986343 137.184479,79.568161 136.036636,79.327492 
	C132.406906,78.566460 128.678406,78.276497 124.988121,77.804321 
z"/>
<path fill="#DD4F3B" opacity="1.000000" stroke="none" 
	d="
M239.467972,78.788834 
	C239.180069,78.411369 239.330750,78.171196 239.908966,78.062515 
	C240.275223,78.479057 240.131897,78.723106 239.467972,78.788834 
z"/>
<path fill="#FCF1EF" opacity="1.000000" stroke="none" 
	d="
M152.863647,52.658470 
	C151.374313,51.406616 150.031555,50.557587 148.688797,49.708553 
	C148.847443,49.185799 149.006088,48.663040 149.164734,48.140285 
	C158.696945,48.140285 168.229156,48.140285 177.761353,48.140285 
	C178.036148,48.475468 178.310928,48.810654 178.585724,49.145836 
	C177.239716,50.130421 175.893707,51.115005 173.628662,52.771851 
	C173.628662,60.182037 173.628662,68.774689 173.628662,77.685783 
	C174.315659,77.634819 175.285904,77.337593 176.107559,77.568703 
	C176.848343,77.777054 177.644852,78.458908 177.974579,79.144577 
	C178.117355,79.441505 177.168900,80.763496 176.683151,80.782608 
	C173.034470,80.926216 169.377548,80.860863 165.723206,80.860863 
	C165.653061,80.244881 165.582932,79.628906 165.512787,79.012924 
	C167.035431,78.506485 168.558075,78.000053 170.206406,77.451813 
	C170.206406,73.564468 170.206406,69.648346 170.206406,65.335220 
	C165.851044,65.335220 161.790207,65.335220 157.339386,65.335220 
	C157.339386,69.157860 157.339386,73.075371 157.339386,77.390747 
	C158.593506,77.865013 160.231873,78.484596 161.870239,79.104179 
	C161.785049,79.504448 161.699844,79.904709 161.614639,80.304977 
	C157.412872,80.304977 153.211121,80.304977 149.009354,80.304977 
	C148.950012,79.770905 148.890656,79.236832 148.831314,78.702759 
	C150.405563,78.340645 151.979828,77.978531 154.179398,77.472588 
	C153.793503,69.415375 153.401855,61.238331 152.863647,52.658470 
M157.002090,55.659851 
	C157.002090,57.724144 157.002090,59.788441 157.002090,61.724739 
	C161.759979,61.724739 165.737167,61.724739 169.490051,61.724739 
	C169.490051,58.243767 169.490051,55.190014 169.490051,52.049500 
	C168.201981,51.943909 167.187042,52.003609 166.260895,51.745117 
	C165.310242,51.479782 164.469284,50.846302 163.540131,50.474312 
	C161.065491,49.483582 157.466766,51.863441 157.002090,55.659851 
z"/>
<path fill="#FCEFEE" opacity="1.000000" stroke="none" 
	d="
M202.811127,68.292328 
	C202.849228,65.758652 202.849228,63.626324 202.849228,61.407288 
	C201.031738,60.967300 199.426193,60.578621 197.820633,60.189945 
	C197.824081,59.615524 197.827545,59.041103 197.830994,58.466682 
	C200.169022,58.359955 202.560516,57.952572 204.808533,58.352245 
	C205.389969,58.455620 205.779785,61.083740 205.813171,62.562157 
	C205.932175,67.830643 205.859695,73.103455 205.859695,78.697090 
	C206.821396,78.828491 208.373611,79.040573 209.925827,79.252655 
	C210.031586,79.725945 210.137360,80.199234 210.243134,80.672531 
	C208.659210,81.116829 207.008438,82.036499 205.516525,81.826645 
	C204.625534,81.701317 203.939285,79.832489 203.242371,78.697426 
	C202.568680,77.600174 201.999329,76.438843 201.247757,75.054413 
	C201.625122,73.480713 202.199081,71.087196 202.811127,68.292328 
z"/>
<path fill="#100E0D" opacity="1.000000" stroke="none" 
	d="
M143.764008,81.478813 
	C143.670425,81.864929 143.397278,81.962624 143.361359,81.907036 
	C138.495056,74.375656 131.026733,75.593582 123.382904,76.170319 
	C121.566635,75.680634 120.147751,75.087837 118.728859,74.495041 
	C118.855736,73.858398 118.982605,73.221748 119.109474,72.585098 
	C120.933670,72.585098 122.858017,72.207985 124.562012,72.660545 
	C128.592636,73.731033 132.233292,73.703957 135.627777,70.357864 
	C138.893448,73.555794 143.761459,75.580307 143.764008,81.478813 
z"/>
<path fill="#FAE7E5" opacity="1.000000" stroke="none" 
	d="
M186.859161,66.129410 
	C186.890823,64.178947 186.890823,62.707359 186.890823,61.206970 
	C184.911316,60.990852 183.190857,60.803017 181.470398,60.615181 
	C181.377319,60.074852 181.284256,59.534523 181.191193,58.994194 
	C183.275314,58.625042 185.510147,57.651329 187.385696,58.118866 
	C188.469498,58.389038 189.560089,60.956390 189.633835,62.537144 
	C189.900879,68.262398 189.739029,74.007660 189.739029,81.009979 
	C184.932526,76.220642 188.102966,70.920242 186.859161,66.129410 
z"/>
<path fill="#E05541" opacity="1.000000" stroke="none" 
	d="
M224.642593,71.287369 
	C225.490677,68.459679 225.637375,65.550072 227.109528,63.688801 
	C228.283203,62.204910 232.233871,60.788456 232.928009,61.453712 
	C235.005386,63.444672 236.196213,66.420876 237.494614,69.126892 
	C237.873291,69.916061 237.520767,71.098007 237.386398,72.083961 
	C236.879150,75.805977 234.497238,79.104881 231.152496,78.571632 
	C228.351517,78.125061 223.877777,76.645195 224.642593,71.287369 
z"/>
<path fill="#0A0A0A" opacity="1.000000" stroke="none" 
	d="
M124.611137,77.917122 
	C128.678406,78.276497 132.406906,78.566460 136.036636,79.327492 
	C137.184479,79.568161 138.762405,80.986343 138.883011,82.013641 
	C139.010391,83.098541 137.798615,85.222214 136.885315,85.397255 
	C132.616928,86.215385 128.249634,86.517387 123.456299,87.023407 
	C122.105385,86.618568 121.019363,86.386772 120.371376,85.725639 
	C119.344772,84.678207 117.842484,83.252861 117.971779,82.156013 
	C118.098953,81.077141 119.932091,80.094147 121.159035,79.284958 
	C122.065636,78.687035 123.200806,78.435677 124.611137,77.917122 
z"/>
<path fill="#120C0B" opacity="1.000000" stroke="none" 
	d="
M123.272263,67.988007 
	C123.275444,65.197304 123.525116,62.693291 123.793633,60.000252 
	C127.870903,60.621216 131.361252,61.488468 131.955093,65.862381 
	C132.109070,66.996544 130.895477,69.356064 130.272324,69.369240 
	C128.029846,69.416687 125.771255,68.701653 123.272263,67.988007 
z"/>
<path fill="#070707" opacity="1.000000" stroke="none" 
	d="
M36.225952,61.566463 
	C40.408123,64.966614 39.707146,72.366425 36.439819,76.073410 
	C35.133591,77.555405 31.787582,78.901939 30.351746,78.225723 
	C28.080385,77.156013 25.544060,74.547043 25.080795,72.202057 
	C24.258205,68.038193 23.662027,63.227798 28.912247,60.620468 
	C31.519344,59.325748 33.817123,58.609356 36.225952,61.566463 
z"/>
<path fill="#0A0A0A" opacity="1.000000" stroke="none" 
	d="
M88.582436,74.353043 
	C86.228432,68.987892 91.319168,59.868179 96.629723,59.198132 
	C101.266907,58.613049 106.059113,65.955635 104.601051,72.031265 
	C103.747421,75.588257 101.874290,79.199944 97.639717,79.321831 
	C94.153954,79.422180 90.293091,78.964516 88.582436,74.353043 
z"/>
<path fill="#E05541" opacity="1.000000" stroke="none" 
	d="
M157.013260,55.203129 
	C157.466766,51.863441 161.065491,49.483582 163.540131,50.474312 
	C164.469284,50.846302 165.310242,51.479782 166.260895,51.745117 
	C167.187042,52.003609 168.201981,51.943909 169.490051,52.049500 
	C169.490051,55.190014 169.490051,58.243767 169.490051,61.724739 
	C165.737167,61.724739 161.759979,61.724739 157.002090,61.724739 
	C157.002090,59.788441 157.002090,57.724144 157.013260,55.203129 
z"/>
</svg>